<svg width="34" height="40" viewBox="0 0 34 40" fill="none" xmlns="http://www.w3.org/2000/svg">
<rect x="1" y="1" width="32" height="38" rx="1" stroke="#2678D9" stroke-width="2"/>
<path d="M6 7H18V9H6V7Z" fill="#2678D9"/>
<path d="M19 7H23V9H19V7Z" fill="#2678D9"/>
<path d="M24 7H28V9H24V7Z" fill="#2678D9"/>
<path d="M6 11H18V13H6V11Z" fill="#2678D9"/>
<path d="M19 11H23V13H19V11Z" fill="#2678D9"/>
<path d="M24 11H28V13H24V11Z" fill="#2678D9"/>
<path d="M6 15H18V17H6V15Z" fill="#2678D9"/>
<path d="M19 15H23V17H19V15Z" fill="#2678D9"/>
<path d="M24 15H28V17H24V15Z" fill="#2678D9"/>
<path d="M6 19H18V21H6V19Z" fill="#2678D9"/>
<path d="M19 19H23V21H19V19Z" fill="#2678D9"/>
<path d="M24 19H28V21H24V19Z" fill="#2678D9"/>
<path d="M6 23H18V25H6V23Z" fill="#2678D9"/>
<path d="M19 23H23V25H19V23Z" fill="#2678D9"/>
<path d="M24 23H28V25H24V23Z" fill="#2678D9"/>
<path d="M6 27H18V29H6V27Z" fill="#2678D9"/>
<path d="M19 27H23V29H19V27Z" fill="#2678D9"/>
<path d="M24 27H28V29H24V27Z" fill="#2678D9"/>
<path d="M6 31H18V33H6V31Z" fill="#2678D9"/>
<path d="M19 31H23V33H19V31Z" fill="#2678D9"/>
<path d="M24 31H28V33H24V31Z" fill="#2678D9"/>
</svg>
